<svg xmlns:dc="http://purl.org/dc/elements/1.1/" xmlns:cc="http://creativecommons.org/ns#" xmlns:rdf="http://www.w3.org/1999/02/22-rdf-syntax-ns#" xmlns:svg="http://www.w3.org/2000/svg" xmlns="http://www.w3.org/2000/svg" xmlns:sodipodi="http://sodipodi.sourceforge.net/DTD/sodipodi-0.dtd" xmlns:inkscape="http://www.inkscape.org/namespaces/inkscape" viewBox="0 0 72 60.00000125" version="1.1" x="0px" y="0px"><g transform="translate(0,-1004.3622)"><path style="color:#000000;font-style:normal;font-variant:normal;font-weight:normal;font-stretch:normal;font-size:medium;line-height:normal;font-family:sans-serif;text-indent:0;text-align:start;text-decoration:none;text-decoration-line:none;text-decoration-style:solid;text-decoration-color:#000000;letter-spacing:normal;word-spacing:normal;text-transform:none;direction:ltr;block-progression:tb;writing-mode:lr-tb;baseline-shift:baseline;text-anchor:start;white-space:normal;clip-rule:nonzero;display:inline;overflow:visible;visibility:visible;opacity:1;isolation:auto;mix-blend-mode:normal;color-interpolation:sRGB;color-interpolation-filters:linearRGB;solid-color:#000000;solid-opacity:1;fill:#000000;fill-opacity:1;fill-rule:nonzero;stroke:none;stroke-width:16;stroke-linecap:butt;stroke-linejoin:miter;stroke-miterlimit:4;stroke-dasharray:none;stroke-dashoffset:0;stroke-opacity:1;color-rendering:auto;image-rendering:auto;shape-rendering:auto;text-rendering:auto;enable-background:accumulate" d="m 27.819727,1007.9589 0,1.6 43,0 0,-1.6 -43,0 z"/><path style="color:#000000;font-style:normal;font-variant:normal;font-weight:normal;font-stretch:normal;font-size:medium;line-height:normal;font-family:sans-serif;text-indent:0;text-align:start;text-decoration:none;text-decoration-line:none;text-decoration-style:solid;text-decoration-color:#000000;letter-spacing:normal;word-spacing:normal;text-transform:none;direction:ltr;block-progression:tb;writing-mode:lr-tb;baseline-shift:baseline;text-anchor:start;white-space:normal;clip-rule:nonzero;display:inline;overflow:visible;visibility:visible;opacity:1;isolation:auto;mix-blend-mode:normal;color-interpolation:sRGB;color-interpolation-filters:linearRGB;solid-color:#000000;solid-opacity:1;fill:#000000;fill-opacity:1;fill-rule:nonzero;stroke:none;stroke-width:16;stroke-linecap:butt;stroke-linejoin:miter;stroke-miterlimit:4;stroke-dasharray:none;stroke-dashoffset:0;stroke-opacity:1;color-rendering:auto;image-rendering:auto;shape-rendering:auto;text-rendering:auto;enable-background:accumulate" d="m 27.819727,1011.5257 0,1.6 43,0 0,-1.6 -43,0 z"/><path style="color:#000000;font-style:normal;font-variant:normal;font-weight:normal;font-stretch:normal;font-size:medium;line-height:normal;font-family:sans-serif;text-indent:0;text-align:start;text-decoration:none;text-decoration-line:none;text-decoration-style:solid;text-decoration-color:#000000;letter-spacing:normal;word-spacing:normal;text-transform:none;direction:ltr;block-progression:tb;writing-mode:lr-tb;baseline-shift:baseline;text-anchor:start;white-space:normal;clip-rule:nonzero;display:inline;overflow:visible;visibility:visible;opacity:1;isolation:auto;mix-blend-mode:normal;color-interpolation:sRGB;color-interpolation-filters:linearRGB;solid-color:#000000;solid-opacity:1;fill:#000000;fill-opacity:1;fill-rule:nonzero;stroke:none;stroke-width:16;stroke-linecap:butt;stroke-linejoin:miter;stroke-miterlimit:4;stroke-dasharray:none;stroke-dashoffset:0;stroke-opacity:1;color-rendering:auto;image-rendering:auto;shape-rendering:auto;text-rendering:auto;enable-background:accumulate" d="m 27.819727,1015.0923 0,1.6 43,0 0,-1.6 -43,0 z"/><path style="color:#000000;font-style:normal;font-variant:normal;font-weight:normal;font-stretch:normal;font-size:medium;line-height:normal;font-family:sans-serif;text-indent:0;text-align:start;text-decoration:none;text-decoration-line:none;text-decoration-style:solid;text-decoration-color:#000000;letter-spacing:normal;word-spacing:normal;text-transform:none;direction:ltr;block-progression:tb;writing-mode:lr-tb;baseline-shift:baseline;text-anchor:start;white-space:normal;clip-rule:nonzero;display:inline;overflow:visible;visibility:visible;opacity:1;isolation:auto;mix-blend-mode:normal;color-interpolation:sRGB;color-interpolation-filters:linearRGB;solid-color:#000000;solid-opacity:1;fill:#000000;fill-opacity:1;fill-rule:nonzero;stroke:none;stroke-width:16;stroke-linecap:butt;stroke-linejoin:miter;stroke-miterlimit:4;stroke-dasharray:none;stroke-dashoffset:0;stroke-opacity:1;color-rendering:auto;image-rendering:auto;shape-rendering:auto;text-rendering:auto;enable-background:accumulate" d="m 27.819727,1018.6589 0,1.6 43,0 0,-1.6 -43,0 z"/><path style="color:#000000;font-style:normal;font-variant:normal;font-weight:normal;font-stretch:normal;font-size:medium;line-height:normal;font-family:sans-serif;text-indent:0;text-align:start;text-decoration:none;text-decoration-line:none;text-decoration-style:solid;text-decoration-color:#000000;letter-spacing:normal;word-spacing:normal;text-transform:none;direction:ltr;block-progression:tb;writing-mode:lr-tb;baseline-shift:baseline;text-anchor:start;white-space:normal;clip-rule:nonzero;display:inline;overflow:visible;visibility:visible;opacity:1;isolation:auto;mix-blend-mode:normal;color-interpolation:sRGB;color-interpolation-filters:linearRGB;solid-color:#000000;solid-opacity:1;fill:#000000;fill-opacity:1;fill-rule:nonzero;stroke:none;stroke-width:16;stroke-linecap:butt;stroke-linejoin:miter;stroke-miterlimit:4;stroke-dasharray:none;stroke-dashoffset:0;stroke-opacity:1;color-rendering:auto;image-rendering:auto;shape-rendering:auto;text-rendering:auto;enable-background:accumulate" d="m 27.819727,1022.2257 0,1.6 43,0 0,-1.6 -43,0 z"/><path style="color:#000000;font-style:normal;font-variant:normal;font-weight:normal;font-stretch:normal;font-size:medium;line-height:normal;font-family:sans-serif;text-indent:0;text-align:start;text-decoration:none;text-decoration-line:none;text-decoration-style:solid;text-decoration-color:#000000;letter-spacing:normal;word-spacing:normal;text-transform:none;direction:ltr;block-progression:tb;writing-mode:lr-tb;baseline-shift:baseline;text-anchor:start;white-space:normal;clip-rule:nonzero;display:inline;overflow:visible;visibility:visible;opacity:1;isolation:auto;mix-blend-mode:normal;color-interpolation:sRGB;color-interpolation-filters:linearRGB;solid-color:#000000;solid-opacity:1;fill:#000000;fill-opacity:1;fill-rule:nonzero;stroke:none;stroke-width:16;stroke-linecap:butt;stroke-linejoin:miter;stroke-miterlimit:4;stroke-dasharray:none;stroke-dashoffset:0;stroke-opacity:1;color-rendering:auto;image-rendering:auto;shape-rendering:auto;text-rendering:auto;enable-background:accumulate" d="m 27.819727,1025.7956 0,1.6 43,0 0,-1.6 -43,0 z"/><path style="color:#000000;font-style:normal;font-variant:normal;font-weight:normal;font-stretch:normal;font-size:medium;line-height:normal;font-family:sans-serif;text-indent:0;text-align:start;text-decoration:none;text-decoration-line:none;text-decoration-style:solid;text-decoration-color:#000000;letter-spacing:normal;word-spacing:normal;text-transform:none;direction:ltr;block-progression:tb;writing-mode:lr-tb;baseline-shift:baseline;text-anchor:start;white-space:normal;clip-rule:nonzero;display:inline;overflow:visible;visibility:visible;opacity:1;isolation:auto;mix-blend-mode:normal;color-interpolation:sRGB;color-interpolation-filters:linearRGB;solid-color:#000000;solid-opacity:1;fill:#000000;fill-opacity:1;fill-rule:nonzero;stroke:none;stroke-width:16;stroke-linecap:butt;stroke-linejoin:miter;stroke-miterlimit:4;stroke-dasharray:none;stroke-dashoffset:0;stroke-opacity:1;color-rendering:auto;image-rendering:auto;shape-rendering:auto;text-rendering:auto;enable-background:accumulate" d="m 0,1029.3589 0,1.6 70.819727,0 0,-1.6 -70.819727,0 z"/><path style="color:#000000;font-style:normal;font-variant:normal;font-weight:normal;font-stretch:normal;font-size:medium;line-height:normal;font-family:sans-serif;text-indent:0;text-align:start;text-decoration:none;text-decoration-line:none;text-decoration-style:solid;text-decoration-color:#000000;letter-spacing:normal;word-spacing:normal;text-transform:none;direction:ltr;block-progression:tb;writing-mode:lr-tb;baseline-shift:baseline;text-anchor:start;white-space:normal;clip-rule:nonzero;display:inline;overflow:visible;visibility:visible;opacity:1;isolation:auto;mix-blend-mode:normal;color-interpolation:sRGB;color-interpolation-filters:linearRGB;solid-color:#000000;solid-opacity:1;fill:#000000;fill-opacity:1;fill-rule:nonzero;stroke:none;stroke-width:16;stroke-linecap:butt;stroke-linejoin:miter;stroke-miterlimit:4;stroke-dasharray:none;stroke-dashoffset:0;stroke-opacity:1;color-rendering:auto;image-rendering:auto;shape-rendering:auto;text-rendering:auto;enable-background:accumulate" d="m 0,1032.929 0,1.6 70.819727,0 0,-1.6 -70.819727,0 z"/><path style="color:#000000;font-style:normal;font-variant:normal;font-weight:normal;font-stretch:normal;font-size:medium;line-height:normal;font-family:sans-serif;text-indent:0;text-align:start;text-decoration:none;text-decoration-line:none;text-decoration-style:solid;text-decoration-color:#000000;letter-spacing:normal;word-spacing:normal;text-transform:none;direction:ltr;block-progression:tb;writing-mode:lr-tb;baseline-shift:baseline;text-anchor:start;white-space:normal;clip-rule:nonzero;display:inline;overflow:visible;visibility:visible;opacity:1;isolation:auto;mix-blend-mode:normal;color-interpolation:sRGB;color-interpolation-filters:linearRGB;solid-color:#000000;solid-opacity:1;fill:#000000;fill-opacity:1;fill-rule:nonzero;stroke:none;stroke-width:16;stroke-linecap:butt;stroke-linejoin:miter;stroke-miterlimit:4;stroke-dasharray:none;stroke-dashoffset:0;stroke-opacity:1;color-rendering:auto;image-rendering:auto;shape-rendering:auto;text-rendering:auto;enable-background:accumulate" d="m 0,1036.4923 0,1.6 70.819727,0 0,-1.6 -70.819727,0 z"/><path style="color:#000000;font-style:normal;font-variant:normal;font-weight:normal;font-stretch:normal;font-size:medium;line-height:normal;font-family:sans-serif;text-indent:0;text-align:start;text-decoration:none;text-decoration-line:none;text-decoration-style:solid;text-decoration-color:#000000;letter-spacing:normal;word-spacing:normal;text-transform:none;direction:ltr;block-progression:tb;writing-mode:lr-tb;baseline-shift:baseline;text-anchor:start;white-space:normal;clip-rule:nonzero;display:inline;overflow:visible;visibility:visible;opacity:1;isolation:auto;mix-blend-mode:normal;color-interpolation:sRGB;color-interpolation-filters:linearRGB;solid-color:#000000;solid-opacity:1;fill:#000000;fill-opacity:1;fill-rule:nonzero;stroke:none;stroke-width:16;stroke-linecap:butt;stroke-linejoin:miter;stroke-miterlimit:4;stroke-dasharray:none;stroke-dashoffset:0;stroke-opacity:1;color-rendering:auto;image-rendering:auto;shape-rendering:auto;text-rendering:auto;enable-background:accumulate" d="m 0,1040.0622 0,1.6 70.819727,0 0,-1.6 -70.819727,0 z"/><path style="color:#000000;font-style:normal;font-variant:normal;font-weight:normal;font-stretch:normal;font-size:medium;line-height:normal;font-family:sans-serif;text-indent:0;text-align:start;text-decoration:none;text-decoration-line:none;text-decoration-style:solid;text-decoration-color:#000000;letter-spacing:normal;word-spacing:normal;text-transform:none;direction:ltr;block-progression:tb;writing-mode:lr-tb;baseline-shift:baseline;text-anchor:start;white-space:normal;clip-rule:nonzero;display:inline;overflow:visible;visibility:visible;opacity:1;isolation:auto;mix-blend-mode:normal;color-interpolation:sRGB;color-interpolation-filters:linearRGB;solid-color:#000000;solid-opacity:1;fill:#000000;fill-opacity:1;fill-rule:nonzero;stroke:none;stroke-width:16;stroke-linecap:butt;stroke-linejoin:miter;stroke-miterlimit:4;stroke-dasharray:none;stroke-dashoffset:0;stroke-opacity:1;color-rendering:auto;image-rendering:auto;shape-rendering:auto;text-rendering:auto;enable-background:accumulate" d="m 0,1043.6257 0,1.6 70.819727,0 0,-1.6 -70.819727,0 z"/><path style="color:#000000;font-style:normal;font-variant:normal;font-weight:normal;font-stretch:normal;font-size:medium;line-height:normal;font-family:sans-serif;text-indent:0;text-align:start;text-decoration:none;text-decoration-line:none;text-decoration-style:solid;text-decoration-color:#000000;letter-spacing:normal;word-spacing:normal;text-transform:none;direction:ltr;block-progression:tb;writing-mode:lr-tb;baseline-shift:baseline;text-anchor:start;white-space:normal;clip-rule:nonzero;display:inline;overflow:visible;visibility:visible;opacity:1;isolation:auto;mix-blend-mode:normal;color-interpolation:sRGB;color-interpolation-filters:linearRGB;solid-color:#000000;solid-opacity:1;fill:#000000;fill-opacity:1;fill-rule:nonzero;stroke:none;stroke-width:16;stroke-linecap:butt;stroke-linejoin:miter;stroke-miterlimit:4;stroke-dasharray:none;stroke-dashoffset:0;stroke-opacity:1;color-rendering:auto;image-rendering:auto;shape-rendering:auto;text-rendering:auto;enable-background:accumulate" d="m 0,1047.1956 0,1.6 70.819727,0 0,-1.6 -70.819727,0 z"/><path style="color:#000000;font-style:normal;font-variant:normal;font-weight:normal;font-stretch:normal;font-size:medium;line-height:normal;font-family:sans-serif;text-indent:0;text-align:start;text-decoration:none;text-decoration-line:none;text-decoration-style:solid;text-decoration-color:#000000;letter-spacing:normal;word-spacing:normal;text-transform:none;direction:ltr;block-progression:tb;writing-mode:lr-tb;baseline-shift:baseline;text-anchor:start;white-space:normal;clip-rule:nonzero;display:inline;overflow:visible;visibility:visible;opacity:1;isolation:auto;mix-blend-mode:normal;color-interpolation:sRGB;color-interpolation-filters:linearRGB;solid-color:#000000;solid-opacity:1;fill:#000000;fill-opacity:1;fill-rule:nonzero;stroke:none;stroke-width:15.99999905;stroke-linecap:butt;stroke-linejoin:miter;stroke-miterlimit:4;stroke-dasharray:none;stroke-dashoffset:0;stroke-opacity:1;color-rendering:auto;image-rendering:auto;shape-rendering:auto;text-rendering:auto;enable-background:accumulate" d="m 0,1052.3622 0,-0.8 0,-47.2 72,0 0,48 -72,0 z m 1.6,-1.6 68.8,0 0,-44.8 -68.8,0 0,44.8 z"/><path style="color:#000000;font-style:normal;font-variant:normal;font-weight:normal;font-stretch:normal;font-size:medium;line-height:normal;font-family:sans-serif;text-indent:0;text-align:start;text-decoration:none;text-decoration-line:none;text-decoration-style:solid;text-decoration-color:#000000;letter-spacing:normal;word-spacing:normal;text-transform:none;direction:ltr;block-progression:tb;writing-mode:lr-tb;baseline-shift:baseline;text-anchor:start;white-space:normal;clip-rule:nonzero;display:inline;overflow:visible;visibility:visible;opacity:1;isolation:auto;mix-blend-mode:normal;color-interpolation:sRGB;color-interpolation-filters:linearRGB;solid-color:#000000;solid-opacity:1;fill:#000000;fill-opacity:1;fill-rule:evenodd;stroke:none;stroke-width:15.99999905;stroke-linecap:butt;stroke-linejoin:miter;stroke-miterlimit:4;stroke-dasharray:none;stroke-dashoffset:0;stroke-opacity:1;color-rendering:auto;image-rendering:auto;shape-rendering:auto;text-rendering:auto;enable-background:accumulate" d="m 27.10625,1004.3622 0,26.5 1.6,0 0,-26.5 -1.6,0 z"/><path d="m 4.27421,1006.4452 -0.22856,0.7384 -0.72555,0 0.58731,0.4463 -0.21738,0.7023 0.57569,-0.4299 0.5926,0.4504 -0.22253,-0.7267 0.59253,-0.4424 -0.72801,0 -0.2261,-0.7384 z" style="" fill="#000000" stroke="none"/><path style="" d="m 8.30203,1006.4452 -0.22856,0.7384 -0.72555,0 0.58731,0.4463 -0.21738,0.7023 0.57569,-0.4299 0.5926,0.4504 -0.22253,-0.7267 0.59253,-0.4424 -0.72802,0 -0.22609,-0.7384 z" fill="#000000" stroke="none"/><path d="m 12.32984,1006.4452 -0.22857,0.7384 -0.72554,0 0.5873,0.4463 -0.21738,0.7023 0.57569,-0.4299 0.59261,0.4504 -0.22254,-0.7267 0.59254,-0.4424 -0.72802,0 -0.22609,-0.7384 z" style="" fill="#000000" stroke="none"/><path style="" d="m 16.35775,1006.4452 -0.22856,0.7384 -0.72554,0 0.5873,0.4463 -0.21738,0.7023 0.57569,-0.4299 0.59261,0.4504 -0.22254,-0.7267 0.59253,-0.4424 -0.72801,0 -0.2261,-0.7384 z" fill="#000000" stroke="none"/><path d="m 20.38557,1006.4452 -0.22856,0.7384 -0.72555,0 0.58731,0.4463 -0.21738,0.7023 0.57569,-0.4299 0.5926,0.4504 -0.22253,-0.7267 0.59253,-0.4424 -0.72801,0 -0.2261,-0.7384 z" style="" fill="#000000" stroke="none"/><path style="" d="m 24.41341,1006.4452 -0.22856,0.7384 -0.72555,0 0.58731,0.4463 -0.21739,0.7023 0.57569,-0.4299 0.59261,0.4504 -0.22254,-0.7267 0.59254,-0.4424 -0.72802,0 -0.22609,-0.7384 z" fill="#000000" stroke="none"/><path d="m 6.28812,1008.9536 -0.22856,0.7383 -0.72555,0 0.58731,0.4464 -0.21738,0.7022 0.57569,-0.4298 0.5926,0.4504 -0.22253,-0.7267 0.59253,-0.4425 -0.72802,0 -0.22609,-0.7383 z" style="" fill="#000000" stroke="none"/><path style="" d="m 10.31593,1008.9536 -0.22857,0.7383 -0.72554,0 0.5873,0.4464 -0.21738,0.7022 0.57569,-0.4298 0.59261,0.4504 -0.22254,-0.7267 0.59254,-0.4425 -0.72802,0 -0.22609,-0.7383 z" fill="#000000" stroke="none"/><path d="m 14.34384,1008.9536 -0.22856,0.7383 -0.72554,0 0.5873,0.4464 -0.21738,0.7022 0.57569,-0.4298 0.59261,0.4504 -0.22254,-0.7267 0.59253,-0.4425 -0.72801,0 -0.2261,-0.7383 z" style="" fill="#000000" stroke="none"/><path style="" d="m 18.37166,1008.9536 -0.22856,0.7383 -0.72555,0 0.58731,0.4464 -0.21738,0.7022 0.57569,-0.4298 0.5926,0.4504 -0.22253,-0.7267 0.59253,-0.4425 -0.72801,0 -0.2261,-0.7383 z" fill="#000000" stroke="none"/><path d="m 22.3995,1008.9536 -0.22856,0.7383 -0.72555,0 0.58731,0.4464 -0.21739,0.7022 0.57569,-0.4298 0.59261,0.4504 -0.22254,-0.7267 0.59254,-0.4425 -0.72802,0 -0.22609,-0.7383 z" style="" fill="#000000" stroke="none"/><path style="" d="m 4.27421,1011.4619 -0.22856,0.7384 -0.72555,0 0.58731,0.4464 -0.21738,0.7022 0.57569,-0.4299 0.5926,0.4504 -0.22253,-0.7267 0.59253,-0.4424 -0.72801,0 -0.2261,-0.7384 z" fill="#000000" stroke="none"/><path d="m 8.30203,1011.4619 -0.22856,0.7384 -0.72555,0 0.58731,0.4464 -0.21738,0.7022 0.57569,-0.4299 0.5926,0.4504 -0.22253,-0.7267 0.59253,-0.4424 -0.72802,0 -0.22609,-0.7384 z" style="" fill="#000000" stroke="none"/><path style="" d="m 12.32984,1011.4619 -0.22857,0.7384 -0.72554,0 0.5873,0.4464 -0.21738,0.7022 0.57569,-0.4299 0.59261,0.4504 -0.22254,-0.7267 0.59254,-0.4424 -0.72802,0 -0.22609,-0.7384 z" fill="#000000" stroke="none"/><path d="m 16.35775,1011.4619 -0.22856,0.7384 -0.72554,0 0.5873,0.4464 -0.21738,0.7022 0.57569,-0.4299 0.59261,0.4504 -0.22254,-0.7267 0.59253,-0.4424 -0.72801,0 -0.2261,-0.7384 z" style="" fill="#000000" stroke="none"/><path style="" d="m 20.38557,1011.4619 -0.22856,0.7384 -0.72555,0 0.58731,0.4464 -0.21738,0.7022 0.57569,-0.4299 0.5926,0.4504 -0.22253,-0.7267 0.59253,-0.4424 -0.72801,0 -0.2261,-0.7384 z" fill="#000000" stroke="none"/><path d="m 24.41341,1011.4619 -0.22856,0.7384 -0.72555,0 0.58731,0.4464 -0.21739,0.7022 0.57569,-0.4299 0.59261,0.4504 -0.22254,-0.7267 0.59254,-0.4424 -0.72802,0 -0.22609,-0.7384 z" style="" fill="#000000" stroke="none"/><path style="" d="m 6.28812,1013.9703 -0.22856,0.7383 -0.72555,0 0.58731,0.4464 -0.21738,0.7022 0.57569,-0.4298 0.5926,0.4504 -0.22253,-0.7267 0.59253,-0.4425 -0.72802,0 -0.22609,-0.7383 z" fill="#000000" stroke="none"/><path d="m 10.31593,1013.9703 -0.22857,0.7383 -0.72554,0 0.5873,0.4464 -0.21738,0.7022 0.57569,-0.4298 0.59261,0.4504 -0.22254,-0.7267 0.59254,-0.4425 -0.72802,0 -0.22609,-0.7383 z" style="" fill="#000000" stroke="none"/><path style="" d="m 14.34384,1013.9703 -0.22856,0.7383 -0.72554,0 0.5873,0.4464 -0.21738,0.7022 0.57569,-0.4298 0.59261,0.4504 -0.22254,-0.7267 0.59253,-0.4425 -0.72801,0 -0.2261,-0.7383 z" fill="#000000" stroke="none"/><path d="m 18.37166,1013.9703 -0.22856,0.7383 -0.72555,0 0.58731,0.4464 -0.21738,0.7022 0.57569,-0.4298 0.5926,0.4504 -0.22253,-0.7267 0.59253,-0.4425 -0.72801,0 -0.2261,-0.7383 z" style="" fill="#000000" stroke="none"/><path style="" d="m 22.3995,1013.9703 -0.22856,0.7383 -0.72555,0 0.58731,0.4464 -0.21739,0.7022 0.57569,-0.4298 0.59261,0.4504 -0.22254,-0.7267 0.59254,-0.4425 -0.72802,0 -0.22609,-0.7383 z" fill="#000000" stroke="none"/><path d="m 4.27421,1016.4786 -0.22856,0.7384 -0.72555,0 0.58731,0.4464 -0.21738,0.7022 0.57569,-0.4298 0.5926,0.4504 -0.22253,-0.7267 0.59253,-0.4425 -0.72801,0 -0.2261,-0.7384 z" style="" fill="#000000" stroke="none"/><path style="" d="m 8.30203,1016.4786 -0.22856,0.7384 -0.72555,0 0.58731,0.4464 -0.21738,0.7022 0.57569,-0.4298 0.5926,0.4504 -0.22253,-0.7267 0.59253,-0.4425 -0.72802,0 -0.22609,-0.7384 z" fill="#000000" stroke="none"/><path d="m 12.32984,1016.4786 -0.22857,0.7384 -0.72554,0 0.5873,0.4464 -0.21738,0.7022 0.57569,-0.4298 0.59261,0.4504 -0.22254,-0.7267 0.59254,-0.4425 -0.72802,0 -0.22609,-0.7384 z" style="" fill="#000000" stroke="none"/><path style="" d="m 16.35775,1016.4786 -0.22856,0.7384 -0.72554,0 0.5873,0.4464 -0.21738,0.7022 0.57569,-0.4298 0.59261,0.4504 -0.22254,-0.7267 0.59253,-0.4425 -0.72801,0 -0.2261,-0.7384 z" fill="#000000" stroke="none"/><path d="m 20.38557,1016.4786 -0.22856,0.7384 -0.72555,0 0.58731,0.4464 -0.21738,0.7022 0.57569,-0.4298 0.5926,0.4504 -0.22253,-0.7267 0.59253,-0.4425 -0.72801,0 -0.2261,-0.7384 z" style="" fill="#000000" stroke="none"/><path style="" d="m 24.41341,1016.4786 -0.22856,0.7384 -0.72555,0 0.58731,0.4464 -0.21739,0.7022 0.57569,-0.4298 0.59261,0.4504 -0.22254,-0.7267 0.59254,-0.4425 -0.72802,0 -0.22609,-0.7384 z" fill="#000000" stroke="none"/><path d="m 6.28812,1018.987 -0.22856,0.7384 -0.72555,0 0.58731,0.4464 -0.21738,0.7022 0.57569,-0.4299 0.5926,0.4504 -0.22253,-0.7267 0.59253,-0.4424 -0.72802,0 -0.22609,-0.7384 z" style="" fill="#000000" stroke="none"/><path style="" d="m 10.31593,1018.987 -0.22857,0.7384 -0.72554,0 0.5873,0.4464 -0.21738,0.7022 0.57569,-0.4299 0.59261,0.4504 -0.22254,-0.7267 0.59254,-0.4424 -0.72802,0 -0.22609,-0.7384 z" fill="#000000" stroke="none"/><path d="m 14.34384,1018.987 -0.22856,0.7384 -0.72554,0 0.5873,0.4464 -0.21738,0.7022 0.57569,-0.4299 0.59261,0.4504 -0.22254,-0.7267 0.59253,-0.4424 -0.72801,0 -0.2261,-0.7384 z" style="" fill="#000000" stroke="none"/><path style="" d="m 18.37166,1018.987 -0.22856,0.7384 -0.72555,0 0.58731,0.4464 -0.21738,0.7022 0.57569,-0.4299 0.5926,0.4504 -0.22253,-0.7267 0.59253,-0.4424 -0.72801,0 -0.2261,-0.7384 z" fill="#000000" stroke="none"/><path d="m 22.3995,1018.987 -0.22856,0.7384 -0.72555,0 0.58731,0.4464 -0.21739,0.7022 0.57569,-0.4299 0.59261,0.4504 -0.22254,-0.7267 0.59254,-0.4424 -0.72802,0 -0.22609,-0.7384 z" style="" fill="#000000" stroke="none"/><path style="" d="m 4.27421,1021.4954 -0.22856,0.7383 -0.72555,0 0.58731,0.4464 -0.21738,0.7022 0.57569,-0.4298 0.5926,0.4504 -0.22253,-0.7267 0.59253,-0.4425 -0.72801,0 -0.2261,-0.7383 z" fill="#000000" stroke="none"/><path d="m 8.30203,1021.4954 -0.22856,0.7383 -0.72555,0 0.58731,0.4464 -0.21738,0.7022 0.57569,-0.4298 0.5926,0.4504 -0.22253,-0.7267 0.59253,-0.4425 -0.72802,0 -0.22609,-0.7383 z" style="" fill="#000000" stroke="none"/><path style="" d="m 12.32984,1021.4954 -0.22857,0.7383 -0.72554,0 0.5873,0.4464 -0.21738,0.7022 0.57569,-0.4298 0.59261,0.4504 -0.22254,-0.7267 0.59254,-0.4425 -0.72802,0 -0.22609,-0.7383 z" fill="#000000" stroke="none"/><path d="m 16.35775,1021.4954 -0.22856,0.7383 -0.72554,0 0.5873,0.4464 -0.21738,0.7022 0.57569,-0.4298 0.59261,0.4504 -0.22254,-0.7267 0.59253,-0.4425 -0.72801,0 -0.2261,-0.7383 z" style="" fill="#000000" stroke="none"/><path style="" d="m 20.38557,1021.4954 -0.22856,0.7383 -0.72555,0 0.58731,0.4464 -0.21738,0.7022 0.57569,-0.4298 0.5926,0.4504 -0.22253,-0.7267 0.59253,-0.4425 -0.72801,0 -0.2261,-0.7383 z" fill="#000000" stroke="none"/><path d="m 24.41341,1021.4954 -0.22856,0.7383 -0.72555,0 0.58731,0.4464 -0.21739,0.7022 0.57569,-0.4298 0.59261,0.4504 -0.22254,-0.7267 0.59254,-0.4425 -0.72802,0 -0.22609,-0.7383 z" style="" fill="#000000" stroke="none"/><path style="" d="m 6.28812,1024.0037 -0.22856,0.7384 -0.72555,0 0.58731,0.4464 -0.21738,0.7022 0.57569,-0.4298 0.5926,0.4504 -0.22253,-0.7267 0.59253,-0.4425 -0.72802,0 -0.22609,-0.7384 z" fill="#000000" stroke="none"/><path d="m 10.31593,1024.0037 -0.22857,0.7384 -0.72554,0 0.5873,0.4464 -0.21738,0.7022 0.57569,-0.4298 0.59261,0.4504 -0.22254,-0.7267 0.59254,-0.4425 -0.72802,0 -0.22609,-0.7384 z" style="" fill="#000000" stroke="none"/><path style="" d="m 14.34384,1024.0037 -0.22856,0.7384 -0.72554,0 0.5873,0.4464 -0.21738,0.7022 0.57569,-0.4298 0.59261,0.4504 -0.22254,-0.7267 0.59253,-0.4425 -0.72801,0 -0.2261,-0.7384 z" fill="#000000" stroke="none"/><path d="m 18.37166,1024.0037 -0.22856,0.7384 -0.72555,0 0.58731,0.4464 -0.21738,0.7022 0.57569,-0.4298 0.5926,0.4504 -0.22253,-0.7267 0.59253,-0.4425 -0.72801,0 -0.2261,-0.7384 z" style="" fill="#000000" stroke="none"/><path style="" d="m 22.3995,1024.0037 -0.22856,0.7384 -0.72555,0 0.58731,0.4464 -0.21739,0.7022 0.57569,-0.4298 0.59261,0.4504 -0.22254,-0.7267 0.59254,-0.4425 -0.72802,0 -0.22609,-0.7384 z" fill="#000000" stroke="none"/><path d="m 4.27421,1026.5121 -0.22856,0.7384 -0.72555,0 0.58731,0.4463 -0.21738,0.7023 0.57569,-0.4299 0.5926,0.4504 -0.22253,-0.7267 0.59253,-0.4424 -0.72801,0 -0.2261,-0.7384 z" style="" fill="#000000" stroke="none"/><path style="" d="m 8.30203,1026.5121 -0.22856,0.7384 -0.72555,0 0.58731,0.4463 -0.21738,0.7023 0.57569,-0.4299 0.5926,0.4504 -0.22253,-0.7267 0.59253,-0.4424 -0.72802,0 -0.22609,-0.7384 z" fill="#000000" stroke="none"/><path d="m 12.32984,1026.5121 -0.22857,0.7384 -0.72554,0 0.5873,0.4463 -0.21738,0.7023 0.57569,-0.4299 0.59261,0.4504 -0.22254,-0.7267 0.59254,-0.4424 -0.72802,0 -0.22609,-0.7384 z" style="" fill="#000000" stroke="none"/><path style="" d="m 16.35775,1026.5121 -0.22856,0.7384 -0.72554,0 0.5873,0.4463 -0.21738,0.7023 0.57569,-0.4299 0.59261,0.4504 -0.22254,-0.7267 0.59253,-0.4424 -0.72801,0 -0.2261,-0.7384 z" fill="#000000" stroke="none"/><path d="m 20.38557,1026.5121 -0.22856,0.7384 -0.72555,0 0.58731,0.4463 -0.21738,0.7023 0.57569,-0.4299 0.5926,0.4504 -0.22253,-0.7267 0.59253,-0.4424 -0.72801,0 -0.2261,-0.7384 z" style="" fill="#000000" stroke="none"/><path style="" d="m 24.41341,1026.5121 -0.22856,0.7384 -0.72555,0 0.58731,0.4463 -0.21739,0.7023 0.57569,-0.4299 0.59261,0.4504 -0.22254,-0.7267 0.59254,-0.4424 -0.72802,0 -0.22609,-0.7384 z" fill="#000000" stroke="none"/></g><text x="0" y="63.000001" fill="#000000" font-size="5px" font-weight="bold" font-family="'Helvetica Neue', Helvetica, Arial-Unicode, Arial, Sans-serif">Created by P Thanga Vignesh</text><text x="0" y="68.000001" fill="#000000" font-size="5px" font-weight="bold" font-family="'Helvetica Neue', Helvetica, Arial-Unicode, Arial, Sans-serif">from the Noun Project</text></svg>